<?xml version="1.0" encoding="utf-8"?>
<!-- Generator: Adobe Illustrator 17.0.0, SVG Export Plug-In . SVG Version: 6.00 Build 0)  -->
<!DOCTYPE svg PUBLIC "-//W3C//DTD SVG 1.1//EN" "http://www.w3.org/Graphics/SVG/1.1/DTD/svg11.dtd">
<svg version="1.1" id="Layer_1" xmlns="http://www.w3.org/2000/svg" xmlns:xlink="http://www.w3.org/1999/xlink" x="0px" y="0px"
	 width="625.43px" height="213.254px" viewBox="0 316.33 625.43 213.254" enable-background="new 0 316.33 625.43 213.254"
	 xml:space="preserve">
<path fill="#FFFFFF" d="M258.175,471.764c1.089-0.048,2.166-0.252,3.197-0.606v7.717c-2.183,0.825-4.501,1.236-6.835,1.213
	c-4.057,0.385-7.918-1.822-9.646-5.512c-5.138,4.158-11.581,6.364-18.189,6.228c-8.764,0-16.866-4.795-16.866-14.772
	c0-12.346,11.465-16.15,21.496-16.15c4.226,0.062,8.435,0.542,12.567,1.433v-1.709c0-6.008-4.409-10.252-12.677-10.252
	c-5.981,0.008-11.895,1.266-17.362,3.693v-9.866c5.946-2.041,12.179-3.12,18.465-3.197c13.669,0,22.047,6.504,22.047,21.11v17.307
	c-0.162,1.727,1.107,3.26,2.834,3.422C257.53,471.855,257.857,471.835,258.175,471.764L258.175,471.764z M220.915,465.205
	c0.341,4.309,4.111,7.526,8.421,7.184c0.207-0.016,0.414-0.041,0.619-0.074c5.195,0.081,10.21-1.901,13.945-5.512v-8.323
	c-3.445-0.731-6.951-1.137-10.472-1.213c-6.063,0.055-12.512,1.929-12.512,7.992L220.915,465.205z M292.459,429.874
	c5.201-0.119,10.34,1.156,14.882,3.693v9.866c-3.94-2.654-8.589-4.056-13.339-4.024c-8.767-0.731-16.467,5.784-17.198,14.551
	s5.783,16.467,14.55,17.198c0.881,0.073,1.767,0.073,2.647,0c4.923-0.018,9.76-1.289,14.055-3.693v9.921
	c-5.008,2.303-10.474,3.434-15.984,3.307c-13.424,0.919-25.051-9.218-25.97-22.641c-0.054-0.793-0.07-1.588-0.046-2.383
	c-0.448-13.813,10.387-25.373,24.2-25.821C290.991,429.825,291.726,429.833,292.459,429.874z M362.9,471.764
	c1.089-0.048,2.166-0.252,3.197-0.606v7.717c-2.183,0.825-4.501,1.236-6.835,1.213c-4.057,0.385-7.918-1.822-9.646-5.512
	c-5.138,4.158-11.581,6.364-18.189,6.228c-8.764,0-16.866-4.795-16.866-14.772c0-12.346,11.465-16.15,21.496-16.15
	c4.226,0.062,8.435,0.542,12.567,1.433v-1.709c0-6.008-4.409-10.252-12.677-10.252c-5.981,0.008-11.895,1.266-17.362,3.693v-9.866
	c5.946-2.041,12.179-3.12,18.465-3.197c13.669,0,22.047,6.504,22.047,21.11v17.307c-0.162,1.727,1.107,3.26,2.834,3.422
	C362.256,471.855,362.583,471.835,362.9,471.764L362.9,471.764z M325.64,465.205c0.341,4.309,4.111,7.526,8.421,7.184
	c0.207-0.016,0.414-0.041,0.619-0.074c5.195,0.081,10.21-1.901,13.945-5.512v-8.323c-3.445-0.731-6.951-1.137-10.473-1.213
	c-6.118,0.055-12.512,1.929-12.512,7.992V465.205z M422.594,409.095v70.331h-9.701v-7.662c-4.354,5.78-11.23,9.105-18.465,8.929
	c-14.033-0.925-24.66-13.051-23.735-27.084c0.84-12.744,10.991-22.895,23.735-23.735c6.629-0.223,13.005,2.551,17.362,7.551v-28.331
	h11.024L422.594,409.095z M396.357,439.3c-8.828,0.018-15.97,7.19-15.951,16.017c0.018,8.802,7.149,15.933,15.951,15.951
	c6.709,0.052,12.784-3.955,15.378-10.142v-11.74C409.054,443.279,403.027,439.325,396.357,439.3z M457.428,429.874
	c19.181,0,25.795,15.488,22.709,29.433h-36.268c1.213,8.654,9.646,12.236,18.465,12.236c5.281,0.016,10.498-1.152,15.268-3.417v9.26
	c-5.464,2.333-11.368,3.461-17.307,3.307c-14.772,0-27.559-8.433-27.559-25.41c-0.673-13.347,9.601-24.712,22.948-25.385
	C456.265,429.87,456.847,429.862,457.428,429.874L457.428,429.874z M457.924,438.804c-7.254-0.558-13.587,4.871-14.144,12.125
	c-0.009,0.111-0.016,0.221-0.021,0.332h26.733c0.648-6.237-3.882-11.819-10.119-12.468
	C459.558,438.708,458.738,438.712,457.924,438.804z M491.106,479.426v-48.229h9.536v6.008c4.107-4.583,9.942-7.24,16.095-7.331
	c6.051-0.381,11.826,2.58,15.047,7.717c4.352-4.741,10.434-7.523,16.866-7.717c9.764-0.381,17.989,7.225,18.37,16.989
	c0.031,0.805,0.008,1.611-0.07,2.412v30.15h-11.024v-29.819c0.522-5.057-3.155-9.579-8.211-10.101
	c-0.44-0.045-0.882-0.059-1.324-0.041c-4.749,0.307-9.122,2.685-11.961,6.504v33.457h-11.024v-29.819
	c0.522-5.057-3.155-9.579-8.211-10.101c-0.44-0.045-0.882-0.059-1.324-0.041c-5.168,0.418-9.87,3.154-12.787,7.441v32.575H490.06
	L491.106,479.426z M614.406,431.197h11.024l-22.599,54.733c-5.236,12.567-12.071,16.536-19.402,16.536
	c-2.138-0.029-4.265-0.306-6.339-0.827v-9.15c1.59,0.484,3.244,0.726,4.906,0.717c5.236,0,9.15-3.693,11.961-11.024l0.992-2.425
	l-22.929-48.615h11.74l16.536,36.378L614.406,431.197z M224.112,324.653v27.559c4.111-4.194,9.725-6.575,15.598-6.614
	c10.362-0.621,19.265,7.275,19.886,17.637c0.041,0.679,0.045,1.36,0.011,2.04v29.819h-11.024v-28.441
	c0.619-5.751-3.542-10.914-9.292-11.533c-0.575-0.062-1.154-0.076-1.732-0.042c-5.527,0.329-10.546,3.332-13.449,8.047v31.969
	h-11.024v-70.441L224.112,324.653L224.112,324.653z M288.986,329.559v17.197h17.473v9.425h-17.473v22.047
	c0,6.339,2.921,8.433,9.15,8.433c3.346-0.008,6.659-0.663,9.756-1.929v9.26c-4.17,1.418-8.549,2.126-12.953,2.095
	c-8.097,1.002-15.472-4.75-16.474-12.846c-0.124-1.005-0.145-2.019-0.062-3.028v-24.142h-8.818v-9.425h8.654v-14.551
	L288.986,329.559z M320.238,394.984v-48.229h9.536v6.008c4.107-4.582,9.942-7.24,16.095-7.331c6.051-0.381,11.826,2.58,15.047,7.717
	c4.352-4.741,10.434-7.523,16.866-7.717c9.764-0.381,17.989,7.225,18.37,16.989c0.031,0.805,0.008,1.611-0.07,2.412v30.15h-11.024
	v-29.819c0.522-5.057-3.155-9.579-8.211-10.101c-0.44-0.045-0.882-0.059-1.324-0.041c-4.749,0.307-9.122,2.685-11.961,6.504v33.457
	h-11.024v-29.819c0.522-5.057-3.155-9.579-8.211-10.101c-0.44-0.045-0.882-0.059-1.324-0.041c-5.169,0.419-9.87,3.154-12.788,7.441
	v32.575h-11.024L320.238,394.984z"/>
<path fill="#FFFFFF" d="M411.846,324.598h10.748v70.331h-10.748V324.598z"/>
<path fill="#FFFFFF" d="M85.103,316.33h-0.882L0,325.149v154.332l84.221,50.103l84.221-50.103V325.149L85.103,316.33z
	 M157.418,473.142l-73.197,43.544l-73.197-43.544v-63.276l72.867,43.378v7.882l-49.993-29.764v7.606l50.213,30.15v8.047
	l-50.158-29.874v7.606l50.213,30.15l50.654-30.315v-32.575l22.599-13.504v64.323L157.418,473.142z M157.418,400.606L137.3,412.402
	l-9.26,5.512l-44.095-26.236v7.606l37.701,22.433h-0.331l-0.827,0.496l-5.512,3.142l-31.087-18.52v7.606l24.528,14.606l-5.787,3.858
	l-18.52-11.024v7.606l12.181,7.165l-12.402,7.441L11.353,400.99l72.591-43.654L157.418,400.606z M157.418,392.945l-73.583-43.378
	L11.079,392.89v-57.874l73.197-7.662l73.197,7.662v57.93h-0.055V392.945z"/>
</svg>
